<svg xmlns="http://www.w3.org/2000/svg" xmlns:xlink="http://www.w3.org/1999/xlink" viewBox="0 0 296.45 84.03"><defs><style>.cls-1{isolation:isolate;}.cls-2{fill:#fe0;}.cls-3{fill:#ec008c;}.cls-4{fill:#00aeef;}.cls-5{fill:#fff;}.cls-6{mix-blend-mode:multiply;fill:url(#radial-gradient);}</style><radialGradient id="radial-gradient" cx="187.96" cy="39.32" fx="123.47091012860653" r="64.49" gradientUnits="userSpaceOnUse"><stop offset="0" stop-color="#fff"/><stop offset="0.32" stop-color="#fdfdfd"/><stop offset="0.44" stop-color="#f6f6f6"/><stop offset="0.52" stop-color="#ebebeb"/><stop offset="0.58" stop-color="#dadada"/><stop offset="0.64" stop-color="#c4c4c4"/><stop offset="0.69" stop-color="#a8a8a8"/><stop offset="0.74" stop-color="#888"/><stop offset="0.78" stop-color="#626262"/><stop offset="0.82" stop-color="#373737"/><stop offset="0.85" stop-color="#090909"/><stop offset="0.86"/></radialGradient></defs><title>ecosLOGO</title><g class="cls-1"><g id="titulo_copy" data-name="titulo copy"><path class="cls-2" d="M490.66,232.24a37,37,0,0,1-26.75-11.31,39.6,39.6,0,0,1,0-55.42,37.26,37.26,0,0,1,27.23-11.31c13.53,0,24.52,6.38,32,18.8l-52.4,35-3-5.1,46.5-31.05A27.85,27.85,0,0,0,491,159.94c-17.52,0-31.53,14.49-31.53,33.12s14,33,31.21,33c16.72,0,29.78-12.43,31.05-31.85h6.85C527.29,217,511,232.24,490.66,232.24Z" transform="translate(-446.6 -148.2)"/><path class="cls-2" d="M583.65,161.53c-21.81,0-36,13.38-36,31.69s14.33,31.69,36,31.69h7v5.89h-5.73c-28.19,0-44.12-15.6-44.12-37.58a36.63,36.63,0,0,1,16.41-30.73c8.12-5.58,16.88-6.85,27.71-6.85h5.73v5.89Z" transform="translate(-446.6 -148.2)"/><path class="cls-2" d="M718.52,224.59c11.63,0,18-4.93,18-12.58s-5.42-12.42-17.2-15.6l-14.49-4c-12.58-3.5-18.79-9.55-18.79-19.26,0-11,8.12-17.52,23.72-17.52h27.71v6.05h-30.1c-9.71,0-14.81,4.14-14.81,11.78,0,6.37,5.1,10.35,15.29,13.22L723,191c13.22,3.66,20.07,10.67,20.07,20.54,0,13.22-9.72,19.27-29.31,19.27H685.88v-6.21Z" transform="translate(-446.6 -148.2)"/><path class="cls-3" d="M488.66,230.24a37,37,0,0,1-26.75-11.31,39.6,39.6,0,0,1,0-55.42,37.26,37.26,0,0,1,27.23-11.31c13.53,0,24.52,6.38,32,18.8l-52.4,35-3-5.1,46.5-31.05A27.85,27.85,0,0,0,489,157.94c-17.52,0-31.53,14.49-31.53,33.12s14,33,31.21,33c16.72,0,29.78-12.43,31.05-31.85h6.85C525.29,215,509,230.24,488.66,230.24Z" transform="translate(-446.6 -148.2)"/><path class="cls-3" d="M581.65,159.53c-21.81,0-36,13.38-36,31.69s14.33,31.69,36,31.69h7v5.89h-5.73c-28.19,0-44.12-15.6-44.12-37.58a36.63,36.63,0,0,1,16.41-30.73c8.12-5.58,16.88-6.85,27.71-6.85h5.73v5.89Z" transform="translate(-446.6 -148.2)"/><path class="cls-3" d="M716.52,222.59c11.63,0,18-4.93,18-12.58s-5.42-12.42-17.2-15.6l-14.49-4c-12.58-3.5-18.79-9.55-18.79-19.26,0-11,8.12-17.52,23.72-17.52h27.71v6.05h-30.1c-9.71,0-14.81,4.14-14.81,11.78,0,6.37,5.1,10.35,15.29,13.22L721,189c13.22,3.66,20.07,10.67,20.07,20.54,0,13.22-9.72,19.27-29.31,19.27H683.88v-6.21Z" transform="translate(-446.6 -148.2)"/><path class="cls-4" d="M486.66,228.24a37,37,0,0,1-26.75-11.31,39.6,39.6,0,0,1,0-55.42,37.26,37.26,0,0,1,27.23-11.31c13.53,0,24.52,6.38,32,18.8l-52.4,35-3-5.1,46.5-31.05A27.85,27.85,0,0,0,487,155.94c-17.52,0-31.53,14.49-31.53,33.12s14,33,31.21,33c16.72,0,29.78-12.43,31.05-31.85h6.85C523.29,213,507,228.24,486.66,228.24Z" transform="translate(-446.6 -148.2)"/><path class="cls-4" d="M579.65,157.53c-21.81,0-36,13.38-36,31.69s14.33,31.69,36,31.69h7v5.89h-5.73c-28.19,0-44.12-15.6-44.12-37.58a36.63,36.63,0,0,1,16.41-30.73c8.12-5.58,16.88-6.85,27.71-6.85h5.73v5.89Z" transform="translate(-446.6 -148.2)"/><path class="cls-4" d="M714.52,220.59c11.63,0,18-4.93,18-12.58s-5.42-12.42-17.2-15.6l-14.49-4c-12.58-3.5-18.79-9.55-18.79-19.26,0-11,8.12-17.52,23.72-17.52h27.71v6.05h-30.1c-9.71,0-14.81,4.14-14.81,11.78,0,6.37,5.1,10.35,15.29,13.22L719,187c13.22,3.66,20.07,10.67,20.07,20.54,0,13.22-9.72,19.27-29.31,19.27H681.88v-6.21Z" transform="translate(-446.6 -148.2)"/><path class="cls-5" d="M484.66,226.24a37,37,0,0,1-26.75-11.31,39.6,39.6,0,0,1,0-55.42,37.26,37.26,0,0,1,27.23-11.31c13.53,0,24.52,6.38,32,18.8l-52.4,35-3-5.1,46.5-31.05A27.85,27.85,0,0,0,485,153.94c-17.52,0-31.53,14.49-31.53,33.12s14,33,31.21,33c16.72,0,29.78-12.43,31.05-31.85h6.85C521.29,211,505,226.24,484.66,226.24Z" transform="translate(-446.6 -148.2)"/><path class="cls-5" d="M577.65,155.53c-21.81,0-36,13.38-36,31.69s14.33,31.69,36,31.69h7v5.89h-5.73c-28.19,0-44.12-15.6-44.12-37.58a36.63,36.63,0,0,1,16.41-30.73c8.12-5.58,16.88-6.85,27.71-6.85h5.73v5.89Z" transform="translate(-446.6 -148.2)"/><path class="cls-5" d="M712.52,218.59c11.63,0,18-4.93,18-12.58s-5.42-12.42-17.2-15.6l-14.49-4c-12.58-3.5-18.79-9.55-18.79-19.26,0-11,8.12-17.52,23.72-17.52h27.71v6.05h-30.1c-9.71,0-14.81,4.14-14.81,11.78,0,6.37,5.1,10.35,15.29,13.22L717,185c13.22,3.66,20.07,10.67,20.07,20.54,0,13.22-9.72,19.27-29.31,19.27H679.88v-6.21Z" transform="translate(-446.6 -148.2)"/><circle class="cls-2" cx="193.96" cy="45.32" r="38.07"/><circle class="cls-3" cx="191.96" cy="43.32" r="38.07"/><circle class="cls-4" cx="189.96" cy="41.32" r="38.07"/><circle cx="187.96" cy="39.32" r="37.53"/><path class="cls-5" d="M671.06,198.37l.07-.29,0-.09C671.13,198.12,671.1,198.25,671.06,198.37Zm-1.36,3.84a38.08,38.08,0,1,1-47.39-50.73l-.39.66-.38,0,.15-.17-1.05.21-.26.35.13.11h.5l.11.15-.19.15-.39.05-.39.15-.24-.07-1.12.55-.06.17-.29.21,0,.3.36,0,0,.15-.47.37.55-.11v.28l.32.07-.37.31-1.09.41-.3.16H617l-.5.2-.35.28,1.11-.33.14.05.49-.15.28-.19.62-.18.26-.17.84-.25.54-.26v-.21l.66-.24-.14.37,1.32-.25.2-.27.38-.06.57.39h.43l.63.26.35.45.31.13.82.07,0,.4.27.37-.09.38.39.32-.1.23.33.35-.08.37.44.21-.16.29.08.43.7.22,1,.73.06.41-.3.07-.68-.09.1.68-.08.7-.33,1-.3.5.07.43-.28.94.21.32v.47l.32.49.5,1.16.46.61.16.43,1,.27.65.61.07.31.2.56.63,1.31.8.63-.27.53,0,.38.61.25.71.49.06.83.77.49.42.37.17.4.39-.36-.82-1-.36-.59-.2-.6-.69-.72-.12-.41-1-1.11-.12-.77.11-.25.94.39v.24l.53,1.16.63.65.33.05.15.45.69.46-.1.4.66.43.31.4.65.51.58.66.52,1.12-.29.43.5.75.72.38.28.3,1,.25.74.49.75.31.5.08.63.3,1,.3,1.18-.4.89.37.78.72.67.4.73.11,1,.36.42-.17.32.27.57.79.54.47v.66l.46.39.28-.06.65.37,0,.27.47.28.77.05.54.59.51-.25-.31-.37.77-.66.3.17.3.83.21.19.26.35.13.58-.12.19.16.63-.09.41.22.15-.44.83-.29.06-.24.88-.74.46.05.28-.35.9-.21.11.1.62.23.49,0,.49-.49.46-.21.49.26.64-.21.31.86.68.37.78.43,1.32.43,1.2.37.84-.12.2.16.53.36.38.85.65.93.58v.26l.43.34-.09.89-.22,1-.54,1.4-.54,1.28-.47,1.16-.53.74-.2.71-.32.48-.24.84-.54.84-1.38,1.76-.19,0-.25.59-.13.48-.38.36-1.16,1.61.22,0,.48-.6.2.11-.81,1-.35-.14-.6.77-.63.41.5.09-.63.36-.45.42-.46.7,0,.25-.28.24-.09.24.39.43.4.07.38-.35.66-.27h.28l.38-.61.74-.38.64-.51.6-.28.43-.39-.25-.07-.09-.29.35-.35.45-.25.34,0,.66-.73.5-.32.43-.18-.38-.2.27-.48.23-.14.24.15.41-.1.33-.2.42-.63.12-.3.36,0,.77-.18.69-.34.75-.71.18-.26-.07-.21.27-.38-.18-.42.19-.29,0,.28.25,0,.18.2h.39l.55-.36.34-.36.39-.35.45-.56.87-.79.87-1.08.37-.35.54-.92.35-.79.51-.64.55-.56.38-.23.3-.32.51-.32.26-.05.21-.39.29-.32.29-.66Zm-61.6-25.57-.16-.44-.37.22,0,.44Zm12.15-21.22-.15-.17-.59.17-.11.32Zm5.67,1.86-.38,0-.27.28.3.21Zm.71,2,.41.1.45.51.67.24.24-.06-.11-.29-.38-.21-.25-.41-1-.26Zm24.19,62-.31-.06-.16-.19.18-.43-.18,0-.45.18-.67.45-.3-.11-.36.11.34.35.66.13.62-.28.3.07Zm3.32-1.4,0-.16-.34.18-.13-.08-.58.27-.05.17.89-.24Zm-30.75-68.78-.15,0,.1,0Zm1-.27a37.92,37.92,0,0,1,10.22-1.4c1.13,0,2.23,0,3.33.15l-.06.12.55,0,.39-.05h.12a38.47,38.47,0,0,1,8.34,1.91l.13.1.29.1.34.23.7.26.93.5.94.38.63.33.45.17.28-.05a37.94,37.94,0,0,1,20.48,38.07l-.16-.53-.31-.48-.37.11-.5-.26-.33.28.06-.39-.13-.38-.49-.33-.4-.18-.26.49v-.69h-.61l-.1-.2.25-.61,0-.47-.19-.09-.36-1.55-.12.05-.08-.28-.43-.53-.43-.18-.44-.14-.35.22-.51-.08-.44-.53-.52-.77-.32-.23-.42-.1-.14-.55-.38-.3-.37,0-.2-.31-.77-.08-.23.41L662,183l-.32-.29-1,.14-.43-.58-.65.1-.62.32.08.52.2.23-.07.51-.23.06-.26-.53.2-.42-.25-.66.29-.27-.28-.43-.21.34-.58.55-.44,0-.38.18-.28.34,0,.82-.23.08-.39.51h-.29l-.45-.38-.91-.2-.18.21-.89.41-.47-.12-.24-.39-.57-.55-.18-.37-.15-.29.17-.73-.1-.48.1-1.29-.8-.54-1-.08-.25.16-.73,0-.37.12-.45-.1.31-.45V178.1l-.13-.1.31.15.14-.82,0-.53.26-.41-.19-.45-.89.06-1,.36-.17,1.16-.36.29-1.86.54-.28-.27-.7-.17-.45-.7-.46-.49-.54-1.2v-1.21l.25-1-.24,0,.1-.24-.1-.75.39-.61.56-.28.47-.49.82-.21.44.14.49-.1.48.32.84,0v-.73h.93l.6-.1.82.45.48-.31.23.09.79.85v.43l.92,1.26.39.42.44,0,0-.41-.12-.68-.86-1.44-.53-1,0-.44.34-.69.43-.42.18-.44.23,0,.2-.37.43-.21.13-.46-.81-1.37.26,0,.24-1.06-.16-.52.77-.22-.07-.22.45-.12-.48-.75,0-.46.59-.4.23-.28-.17-.17.9-.16-.33.48.3.45h.3l.34-.65.52-.38.14-.38-.34-.16-.19.24-.48.12-.62-.21-.87-.9,0-.36-.46-.22-.45.09-.69.78.05-.69.27-.25,0-.37.77-.1.73,0,.43-.12V158l.29-.21,0-.37-.52-.5-.52-.2-.48-.35-.3-.12-.51-.07L651,155.8l-.17-.27-1.67-.93-.57-.33.25.65-.16.25-.43-.22-.3,0-.91-.81h-.49l-.23-.14-.9-.3-.12.11-.86-.09-.12.1.61.58.42.34,0,.44.61.28.49.34.24.28,0,.31-.16.32-.41.24.39.22.64.71.1.49-.2.17-.81-.42-.57-.51-.37-.45-.17-.38-1,0-1-.27-.8-.35-.74-.16-.47.1-.62-.7-.53-.05-.17-.47v-.31l.16-.44.22-.31.33-.06-.12-.23.14-.16.39,0,.17-.25v-.44l.59-.15.27-.24-.45-.32-.16-.31-.44-.14-.69,0,.28.33v.51l-.41-.21-.1-.23-.43-.18-.83-.11.1-.15-.52-.31-.6-.15-.14.2.16.32.69.29.06.31-.82-.14-.09.25-.77.05-.49-.13-.28,0-.51-.24-.5,0,.11.24-.28.16-.28-.19-.94.09-.07-.22-1.43-.32-.31-.13-.72.11-.33,0-.22-.28-.56,0-.87.18-.29-.05-.67.2-.71-.29-.37-.15-.32,0-.68-.21-.42-.06-.35-.26Zm39.43,31.53,0,.53.37-.12,0-.51Zm-3.51-5,0,.39.64-.07-.29-.35Zm-4.74.57-.71-.18-.4.2.7.32Zm.9-1.49-.86-.44-.52-.1-1.18-.81-.49.1-.27-.23-.57-.2h-.94l-.54.16-.5.3-.1.52.57-.27.35-.36h.56l0,.29.76.07.75.28.3,0,.44.55.62.18-.3.4,1.16-.08.69-.16Zm1.37.29-.53.19.19.7-.91-.09.32.41.22-.14.94.05.33-.18.91-.17.27.13.12-.28-.55-.44-.27,0-.61-.35Zm-3.27-18.83.08.28.38.79v.32l.36.45.85-.11.36.09.26-.16.29.41.35,0-.27-.45-1-.81-.39-.11-.36,0-.33-.26-.36-.56Zm-18-7.2-.4.06,1,.32.3-.11-.1-.25-.36-.1.11-.13-.67-.08-.18.12Zm.8.7-.28.23.38.13.56,0-.11-.22Zm.93-1-.79-.05-.13.08,0,.23.27.23h.25l.07-.21.2,0Zm4.9,3.35-.44-.06-.08.18.35.09Zm.19-.39-.63-.24-.78-.2-.69-.19.31.59.48.35.39-.41.28.16.5.06Zm-.34-1.17.27-.13-.19-.18-.41,0Zm-1.16-1.39-1-.22,0,.12-.45-.08-.63-.25-.59.18-.43-.08,0,.35.48.39.26.1.92.1.84,0,.82,0,1,.32.5.13.44.23.19.5.21.11-.89.1.08.26.33.11.67-.1,1,.2.51.26.75.17.82.09-.46-.36.4.07-.24-.26-.57-.33-1.17-.38-.22-.19.22-.06.74.28.44.12-.19-.41-.27-.22h-.32l-.7-.26-.39,0-.73-.16.14-.16-.91-.35-.59-.08-.44-.16Zm-1.78-.44,0,.1.37.13.6,0-.6-.19Zm-2.89-.52.24.1.29.23.84.09.79-.08.25,0,.18-.13-.46-.16-.75.08h-.48l-.39-.1-.25-.15Zm-.25.33.55,0-.34-.15Zm-1-.3.23.28h.49l-.11-.29-.18-.1Zm-.69.79-1.2,0-.54-.1-.58.15-.44.31.35.08-.12.21.32.41.55.05.11.15,1.1-.08.74-.12.91.12.23-.38-.88-.27-.3-.46Zm-1.58-.82-.49.28.95.2.47-.11.61,0,0-.23-.32,0-.14-.18-.67.11Zm-1.25.06.48,0,.65-.17.08-.16-.45,0Zm-.57.57-.7.47.4.15,0,.13.64-.13.39-.3.83-.24-.34-.18-.71-.08-.64,0Z" transform="translate(-446.6 -148.2)"/><circle class="cls-6" cx="187.96" cy="39.32" r="38.07"/></g></g></svg>